# xmcd
#
# Track frame offsets:
#	150
#	15876
#	29566
#	47103
#	59590
#	80629
#	95586
#	107492
#	121445
#	136545
#	150671
#	166489
#
# Disc length: 2369 seconds
#
# Revision: 1
# Processed by: cddbd v1.5.1PL0 Copyright (c) Steve Scherf et al.
# Submitted via: audiograbber 1.80
#
DISCID=94093f0c
DTITLE=Elisabeth Andreassen - Short Stories
DYEAR=2005
DGENRE=Country
TTITLE0=The Year We Painted Pink
TTITLE1=I Met Bob
TTITLE2=Tears Of Lead (med Bjarte Hjelmeland)
TTITLE3=Jackson (med Lee Hazlewood)
TTITLE4=Boulder To Birmingham
TTITLE5=She Could Even Talk To The Sparrows It Seems
TTITLE6=Forever Faithful
TTITLE7=My Tennessee Mountain Home
TTITLE8=I Still Miss Someone
TTITLE9=Amarillo
TTITLE10=Last Night
TTITLE11=I Never Will Marry
EXTD=
EXTT0=
EXTT1=
EXTT2=
EXTT3=
EXTT4=
EXTT5=
EXTT6=
EXTT7=
EXTT8=
EXTT9=
EXTT10=
EXTT11=
PLAYORDER=
